<?xml version="1.0" encoding="utf-8"?>
<!-- Generator: Adobe Illustrator 27.5.0, SVG Export Plug-In . SVG Version: 6.00 Build 0)  -->
<svg version="1.1" xmlns="http://www.w3.org/2000/svg" xmlns:xlink="http://www.w3.org/1999/xlink" x="0px" y="0px"
	 viewBox="0 0 595.28 841.89" style="enable-background:new 0 0 595.28 841.89;" xml:space="preserve">
<style type="text/css">
	.Chisel_x0020_2{fill:none;stroke:#000000;stroke-width:3;}
	.st0{fill:#39B54A;}
	.st1{fill:#D59758;}
	.st2{fill:#0083CA;}
	.st3{fill:#86328C;}
	.st4{fill:#FFBF00;}
	.st5{fill:#AEE0E8;}
	.st6{fill:#FF7F00;}
	.st7{fill:#FFC60B;}
	.st8{fill:#00A9A3;}
	.st9{fill:#FF4000;}
	.st10{fill:#2E3192;}
	.st11{fill:#FF0000;}
	.st12{fill:#E81A4B;}
	.st13{fill:#8F0000;}
	.st14{fill:#7E8083;}
</style>
<g id="katman_2">
</g>
<g id="Layer_1">
	<g id="XMLID_1_">
		<g>
			<g>
				<path class="st0" d="M458.17,327.51c2.04,20.59-4.77,45.45-17.74,70.95h-93.48c3.4-5.83,7.5-11.67,12.95-17.51
					C387.21,349,428.84,329.36,458.17,327.51z"/>
				<path class="st1" d="M456.13,538.83h-13.66c-0.68-3.08-0.68-7.38-8.88-7.38c-5.43,0-8.86,0.92-9.54,4.61
					c0,5.84,10.91,5.53,19.79,7.68c8.88,2.15,14.33,7.36,14.33,15.04c0,13.23-10.92,18.76-24.58,18.76
					c-15.01,0-24.56-7.7-24.56-18.76h14.34c0,3.4,2.04,8.61,10.92,8.61c6.14,0,9.55-3.68,9.55-6.45c-0.69-4.3-6.14-4.92-12.29-5.53
					c-5.46-0.91-10.23-2.14-13.64-3.66c-4.78-2.48-7.51-7.71-7.51-13.23c0-9.81,8.18-17.49,22.53-17.49
					C446.58,521.03,454.77,528.38,456.13,538.83z"/>
				<path class="st2" d="M162.69,410.44h271.6c-2.06,4-5.45,9.22-8.88,12.59H170.88C168.83,420.26,164.73,414.74,162.69,410.44z"/>
				<path class="st3" d="M181.79,435.92h233.38c-3.39,4.31-8.18,8.63-12.97,11.37H193.39C189.31,444.55,185.21,440.23,181.79,435.92
					z"/>
				<path class="st4" d="M403.58,521.62v54.68h-13.65v-3.66c-4.11,2.74-9.54,4.9-15.69,4.9c-15.7,0-28.65-12.91-28.65-28.27
					c0-15.97,12.95-28.24,28.65-28.24c6.15,0,11.58,1.53,15.69,4.59v-4H403.58z M389.93,549.27c0-8.6-6.82-15.97-15.01-15.97
					c-8.19,0-15.7,7.37-15.7,15.97c0,8.3,7.51,15.36,15.7,15.36C383.11,564.63,389.93,557.57,389.93,549.27z"/>
				<path class="st5" d="M322.38,459.29h64.15c-22.52,16.89-47.08,25.48-66.21,26.7C320.32,478.95,320.32,469.42,322.38,459.29z"/>
				<path class="st6" d="M341.48,502.89v73.41h-13.65v-3.66c-4.09,2.74-10.23,4.9-15.69,4.9c-15.7,0-28.66-12.91-28.66-28.27
					c0-15.97,12.96-28.24,28.66-28.24c5.46,0,10.92,1.53,15.69,4.59v-22.73H341.48z M327.83,549.27c0-8.6-6.8-15.97-15.69-15.97
					c-8.18,0-15.7,7.37-15.7,15.97c0,8.3,7.52,15.36,15.7,15.36C321.03,564.63,327.83,557.57,327.83,549.27z"/>
				<path class="st7" d="M340.12,376.03c0,8.3-0.67,15.05-0.67,22.43h-81.21c-1.38-7.38-1.38-14.13-1.38-22.43
					c0-44.52,19.12-90.59,41.64-111.18C320.32,285.44,340.12,331.51,340.12,376.03z"/>
				<path class="st8" d="M278.02,459.29h40.26c-6.14,12.27-12.96,21.8-19.78,28.55C290.98,481.09,284.84,471.56,278.02,459.29z"/>
				<rect x="264.37" y="521.62" class="st9" width="13.65" height="54.68"/>
				<rect x="264.37" y="502.89" class="st9" width="13.65" height="13.53"/>
				<path class="st10" d="M275.3,459.29c0.68,10.13,0.68,19.66,0.68,26.7c-17.74-1.22-43-9.81-65.53-26.7H275.3z"/>
				<path class="st11" d="M258.24,502.89v73.41h-13.66v-3.66c-4.78,2.74-10.23,4.9-16.36,4.9c-15.7,0-28.68-12.91-28.68-28.27
					c0-15.97,12.98-28.24,28.68-28.24c6.13,0,11.58,1.53,16.36,4.59v-22.73H258.24z M244.58,549.27c0-8.6-7.5-15.97-15.7-15.97
					c-8.86,0-16.36,7.37-16.36,15.97c0,8.3,7.5,15.36,16.36,15.36C237.08,564.63,244.58,557.57,244.58,549.27z"/>
				<path class="st12" d="M250.72,398.46h-94.17c-12.96-25.5-19.1-50.36-17.06-70.95c28.66,1.85,70.96,21.49,98.27,53.44
					C242.54,386.79,247.31,392.63,250.72,398.46z"/>
				<path class="st13" d="M194.75,521.62v54.68h-12.96v-3.66c-4.76,2.74-10.23,4.9-16.38,4.9c-15.68,0-28.65-12.91-28.65-28.27
					c0-15.97,12.97-28.24,28.65-28.24c6.15,0,11.62,1.53,16.38,4.59v-4H194.75z M181.79,549.27c0-8.6-7.49-15.97-16.38-15.97
					c-8.18,0-15.68,7.37-15.68,15.97c0,8.3,7.5,15.36,15.68,15.36C174.3,564.63,181.79,557.57,181.79,549.27z"/>
			</g>
		</g>
		<g>
			<g>
				<path d="M441.4,401.19l-19.45-0.53l-19.4-2.13l-19.4,0.26l-19.4,0.95l-19.3-0.59l1.19-1.45l12.2-18.63l15.39-11.85l14.81-12.05
					l15.47-11.42l17.33-8.42l17.93-7.42l19.31-1.89l1.58-0.24l-1.3,1.73l1.76,18.65l-4.53,18.24l-7.27,17.22l-5.25,18.08
					L441.4,401.19z M350.03,395.81l17.54,0.45l17.98,2.13l17.98-0.26l17.98-0.95l18.19,0.57l7.09-16.93l4.53-17.09l6.36-16.77
					l0.02-18.92l-19.21,4.44l-17.56,6.18l-16.09,9.32l-16.38,8.82l-14.33,11.89l-14.09,12.35L350.03,395.81z"/>
				<path d="M433.59,580.27l-18.01-5.33l-6.62-16.16l-1.33-0.33l17.22-0.94l-0.8,1.28l10.24,7.09l6.76-4.69l-9.45-5.75l-13.68-3.56
					l-9.02-13.34l7.67-14.61l16.36-5.76l16.28,6.04l8.61,14.42l-0.12,0.41l-16.49,2.09l-0.17-1.96l1.09-1.16l-8.54-3.63l-9.28,1.76
					l12.4,6.29l7.38,0.31l14.13,16.07l-6.51,16.24L433.59,580.27z M411.13,561.39l8.02,10.55l14.44,5.53l16.29-4.05l7.01-14.64
					l-13.21-14.38l-7.21-0.49l-15.22-7.86l2.79,0l9.55-4.7l10.11,5.98l10.62-0.07l-8.53-10.13l-12.86-4.6l-14.02,3.81l-8.33,12.18
					l8.36,11.2l12.85,4.25l12.21,6.94l2.74,0.02l-12.45,6.71l-11.9-8.8L411.13,561.39z"/>
				<path d="M426.05,425.76l-18.31-0.53l-18.27-2.13l-18.27,0.26l-18.28,0.95l-18.28-0.6l-18.28,0.84l-18.28,1.28l-18.28-2.79
					l-18.28,0.09l-18.28,1.4l-18.28,0.07l-18.28,1.3l-18.28-1.37l-18.29,0.2l0.53-1.72l-10.02-11.6l-0.31-2.44l18.42,1.3l18.43-2.73
					l18.42,2.65l18.42,0.24l18.43-1.05l18.43,1l18.43-1.94l18.43,1.8l18.43-0.54l18.43-1.06l18.43,1.49l18.43-2.18l18.43,0.36
					l18.44,0.85l18.34,0.53l-1.14,1.37l-10.09,12.23L426.05,425.76z M171.78,420.31l17.93,0.52l18.08,2.13l18.08-0.26l18.08-0.95
					l18.08,0.6l18.08-0.84l18.08-1.28l18.08,2.79l18.08-0.09l18.08-1.4l18.09-0.07l18.09-1.3l18.09,1.37l18.06-0.2l7.25-10.68
					l-18.02,2.08l-17.77-0.82l-17.77-1.3l-17.77,2.73l-17.77-2.65l-17.77-0.24l-17.77,1.05l-17.77-1l-17.77,1.94l-17.77-1.8
					l-17.77,0.54l-17.78,1.06l-17.78-1.49l-17.78,2.18l-17.65-0.37L171.78,420.31z"/>
				<path d="M402.61,450.02l-17.48-0.53l-17.47-2.13l-17.47,0.26l-17.47,0.95l-17.47-0.6l-17.47,0.84l-17.47,1.28l-17.47-2.79
					l-17.47,0.09l-17.48,1.4l-17.48,0.07l-17.5,1.3l-0.36-1.63l-12.1-11.56l-1.57-1.26l18.23-2.09l18.42,0.82l18.43,1.3l18.43-2.73
					l18.43,2.65l18.43,0.24l18.43-1.05l18.43,1l18.43-1.94l18.43,1.8l18.43-0.54l18.44-1.06l18.26,1.48l-0.96,1.85l-13.78,11.62
					L402.61,450.02z M193.99,444.57l17.19,0.52l17.33,2.13l17.33-0.26l17.33-0.95l17.33,0.6l17.33-0.84l17.33-1.28l17.32,2.79
					l17.33-0.09l17.33-1.4l17.33-0.07l17.2-1.3l10.27-6.99l-17.45,0.2l-17.45-1.53l-17.46,2.1l-17.46-0.82l-17.46-1.3l-17.46,2.73
					l-17.46-2.65l-17.46-0.24l-17.46,1.05l-17.46-1l-17.46,1.94l-17.46-1.8l-17.61,0.55L193.99,444.57z"/>
				<path d="M374.24,580.27l-15.28-4.67l-9.47-12.19l-4.23-14.14l3.02-14.9l11.3-10.27l14.66-4.59l14.01,2.08l0.42,0l15.35-0.55
					l1.06,18.31l0.07,19.23l0.97,20.13l-17.69-0.9l-0.03-2.3L374.24,580.27z M374.24,523.76l-18.72,6.94l-9.86,18.57l8.73,19.73
					l19.85,7.27l15.31-4.19l1.89-2.25l0.53,3.8l11.37,1.96l0.13-18.01l-1.4-17.23l-0.06-17.19l-9.96,1.19l-0.63,4.26l-2.52-1.62
					L374.24,523.76z M374.92,567.36l-17.9-18.09l6.84-11.18l11.06-5.12l16.29,16.3L374.92,567.36z M374.92,536.03l-13.5,13.24
					l13.5,15.29l14.68-15.29L374.92,536.03z"/>
				<path d="M317.98,488.49l0.14-2.5l2.46-13.46l1.47-13.31l-0.89-1.21l17.45,0.6l17.47-0.84l17.47-1.28l17.19,2.76l-4.16,0.12
					l-14.43,11.2l-16.35,8.2l-17.02,7.11l-18.38,1.6L317.98,488.49z M324.09,461.93l-1.74,22l15.88-0.98l15.54-5.46l14.39-7.89
					l13.91-9.6l-19.6,0.83l-19.39,1.27L324.09,461.93z"/>
				<path d="M312.14,580.27l-15.28-4.67l-9.47-12.19l-4.23-14.15l3.02-14.9l11.3-10.27l14.67-4.59l12.92,3.22l2.45-20.43l14.42,0.01
					l1.06,18.18l0.07,19.1l1.3,19.1l-1.38,19.11l-16.68,0.2l0.09-4.04L312.14,580.27z M312.14,523.76l-18.73,6.94l-9.86,18.57
					l8.74,19.73l19.85,7.26l15.31-4.19l1.9-2.26l0.53,3.81l11.38,1.95l0.13-18.37l-1.4-17.6l-0.07-17.6l-1.11-16.89l-9.47-0.71
					l0.2,23.99l-1.8-2.61L312.14,523.76z M312.14,567.36l-17.9-18.09l6.84-11.18l11.06-5.12l12.04,4.16l4.33,12.14L312.14,567.36z
					 M312.14,536.03l-13.5,13.24l13.5,15.29l15.36-15.29L312.14,536.03z"/>
				<path d="M341.06,401.19l-16.89-0.53l-16.79-2.13l-16.79,0.26l-16.79,0.95l-16.74-0.6l-0.31-0.4l-2.68-22.71l3.72-17.36
					l2.57-17.22l2.9-17.3l5.76-16.58l6.32-16.51l10.54-14.2l11.48-13.27l1.16,0.53l1.56-0.93l10.78,13.9l8.04,15.52l9.96,14.66
					l3.46,17.38l4.13,16.89l3.78,17.04l-0.04,17.44l1.59,11.97l-2.12,10.48L341.06,401.19z M259.88,395.79l19.23,0.47l19.61,2.13
					l19.62-0.26l19.65-0.95l1.1-9.3l-0.5-11.85l-2.18-16.8l0.12-17.2l-4.31-16.55l-7.02-15.58l-7.22-15.35l-9.84-13.77l-9.66-13.84
					l-10.82,13.03l-10.15,13.77l-5.19,16.33l-6.33,15.74l-5.39,16.22l0.08,17.2l-3.58,16.8L259.88,395.79z"/>
				<path d="M298.58,491.13l-1.55-1.65l-9.89-14.94l-9.41-15.08l-2.23-1.44l15.04,0.6l15.08-0.84l15.28-1.26l-2.62,2.79l-8.71,15.17
					l-10.03,14.44L298.58,491.13z M280.93,461.97l8.29,11.55l9.24,13.66l10.53-12.63l6.91-13.97l-17.72-0.61L280.93,461.97z"/>
				<path d="M280.45,578.6l-18.11-0.35l1.95-19.68l-0.26-19.23l-1-19.08l15.86,0.39l0.64,18.69l1.27,19.2L280.45,578.6z
					 M266.92,574.15l9.01,0.28l2.02-16.86l-0.26-17.23L276.71,523l-11.54-0.32l0.72,17.66l1.27,17.19L266.92,574.15z"/>
				<path d="M280.39,518.79l-18.01-0.38l1.5-16.01l14.82-0.18L280.39,518.79z M266.73,514.05l9.29,0.38l1.49-11.05l-12.47,0.18
					L266.73,514.05z"/>
				<path d="M278.32,488.5l-2.49-0.31l-17.41-5.21l-17.05-5.58l-16.58-7.14l-14.75-10.42l-4.1-2.06l17.69-1.28l17.69,2.79
					l17.69-0.09l17.69-1.4l0.17,1.4l1.98,26.68L278.32,488.5z M215.33,461.99l13.79,6.7l13.7,8.87l15.52,4.98l16.32,1.96
					l-0.43-24.46l-19.93,0.78l-19.57,1.27L215.33,461.99z"/>
				<path d="M228.22,580.27l-15.29-4.67l-9.48-12.19l-4.24-14.15l3.03-14.91l11.31-10.26l14.67-4.59l13.6,3.22l2.44-20.43
					l14.43,0.01l1.06,18.18l0.07,19.1l1.3,19.1l-1.38,19.11l-16.7,0.2l0.04-4.17L228.22,580.27z M228.22,523.76l-18.74,6.94
					l-9.87,18.57l8.75,19.73l19.86,7.26l16.02-4.21l1.86-2.01l0.51,3.58l11.41,1.96l0.13-18.37l-1.4-17.6l-0.07-17.6l-1.11-16.89
					l-9.48-0.71l0.2,23.99l-1.8-2.61L228.22,523.76z M228.88,567.36l-12.85-5.55l-3.58-12.54l4.75-11.51l11.68-5.73l11.49,5.64
					l5.73,11.6L228.88,567.36z M228.88,536.03l-14.16,13.24l14.16,15.29l15.37-15.29L228.88,536.03z"/>
				<path d="M253.49,401.18l-19.69-0.52l-19.54-2.13l-19.54,0.26l-19.54,0.95l-19.51-0.6l-0.47,0.01l-8.89-16.56l-3.23-18.6
					l-3.51-18.12L138,327.36l0.1-1.5l1.58-1.23l18.87,4.66l18.29,6.05l16.62,9.73l17.4,8.46l14.57,12.69l12.45,14.61l15.38,16.22
					L253.49,401.18z M157.78,395.77l17.8,0.49l18.11,2.13l18.11-0.26l18.12-0.95l18.38,0.56l-11.72-15.82l-13.84-12.38l-12.77-13.84
					l-15.9-9.98l-17.39-6.98l-17.58-6.11l-17.36-2.46l-0.47,16.59l3.58,17.27l4.14,17.3L157.78,395.77z"/>
				<path d="M165.41,580.27l-15.28-4.67l-9.47-12.19l-4.23-14.14l3.02-14.9l11.3-10.27l14.66-4.59l14.71,2.22l0.43-0.14l14.62-0.57
					l1.08,18.33l0.07,19.23l0.99,20.11l-17.02-0.88l0-2.44L165.41,580.27z M165.41,523.76l-18.72,6.94l-9.86,18.57l8.73,19.73
					l19.85,7.27l16.04-4.21l1.86-2.02l0.54,3.6l10.69,1.92l0.11-17.97l-1.4-17.23l-0.06-17.19l-9.25,1.18l-0.64,4.03l-2.43-1.31
					L165.41,523.76z M165.41,567.36l-17.88-18.09l6.83-11.18l11.05-5.12l12.35,4.1l4.71,12.2l-4.65,12.04L165.41,567.36z
					 M165.41,536.03l-13.48,13.24l13.48,15.29l16.05-15.29L165.41,536.03z"/>
			</g>
		</g>
	</g>
	<path class="st14" d="M449.29,503.8c-3.4,0-6.14,2.75-6.14,5.85c0,3.37,2.75,5.82,6.14,5.82c2.73,0,5.46-2.45,5.46-5.82
		C454.76,506.55,452.03,503.8,449.29,503.8 M449.29,516.42c-4.09,0-6.82-3.1-6.82-6.76c0-3.69,2.73-6.76,6.82-6.76
		c3.43,0,6.82,3.07,6.82,6.76C456.12,513.32,452.72,516.42,449.29,516.42"/>
	<path d="M449.29,506.88h-1.36v2.78h1.36c0.68,0,1.36-0.62,1.36-1.55C450.65,507.5,449.97,506.88,449.29,506.88 M450.65,513.32
		l-1.36-3.07h-1.36v3.07h-1.36v-7.36h2.72c1.36,0,2.73,0.92,2.73,2.14c0,1.23-0.69,1.85-2.05,2.14l2.05,3.07"/>
</g>
</svg>
